<?xml version="1.0" encoding="UTF-8"?>
<svg viewBox="0 0 48 48" xmlns="http://www.w3.org/2000/svg">
 <defs>
  <radialGradient id="g" cx="25.02" cy="44.3" r="16.727" gradientTransform="matrix(1 0 0 .11504 0 39.203)" gradientUnits="userSpaceOnUse">
   <stop stop-color="#2e3436" offset="0"/>
   <stop stop-color="#2e3436" stop-opacity="0" offset="1"/>
  </radialGradient>
  <linearGradient id="h" x2="0" y1="5.265" y2="42.603" gradientUnits="userSpaceOnUse">
   <stop stop-color="#fff" stop-opacity=".5" offset="0"/>
   <stop stop-color="#fff" stop-opacity="0" offset="1"/>
  </linearGradient>
  <radialGradient id="i" cx="14.11" cy="9.421" r="18.717" gradientTransform="matrix(-.24286 .98187 -1.974 -.48825 37.804 -2.9475)" gradientUnits="userSpaceOnUse">
   <stop stop-color="#888a85" offset="0"/>
   <stop stop-color="#555753" offset="1"/>
  </radialGradient>
  <radialGradient id="j" cx="26.805" cy="30.17" r="14.476" gradientTransform="matrix(1.1921 -1.6716 2.4234 1.7282 -79.548 24.449)" gradientUnits="userSpaceOnUse">
   <stop stop-color="#d3d7cf" offset="0"/>
   <stop stop-color="#eeeeec" offset="1"/>
  </radialGradient>
  <linearGradient id="k" x1="9.583" x2="26.52" y1="-12.469" y2="34.548" gradientUnits="userSpaceOnUse">
   <stop stop-color="#fff" offset="0"/>
   <stop stop-color="#fff" stop-opacity="0" offset="1"/>
  </linearGradient>
  <linearGradient id="l" x2="0" y1="8.164" y2="39.695" gradientUnits="userSpaceOnUse">
   <stop stop-color="#2e3436" offset="0"/>
   <stop stop-color="#babdb6" offset="1"/>
  </linearGradient>
 </defs>
 <path transform="matrix(1 0 0 1.4615 -1.0168 -21.158)" d="m41.744 44.299a16.727 1.9244 0 1 1 -33.454 0 16.727 1.9244 0 1 1 33.454 0z" fill="url(#g)" opacity=".6"/>
 <path d="m44 24a20 19.998 0 1 1 -40 0 20 19.998 0 1 1 40 0z" fill="#2e3436"/>
 <path d="m22.75 5.375c-14.135 0.2517-22.748 18.578-13.812 29.688l-0.03125 0.03125c8.1121 11.985 28.438 9.0201 32.656-4.8438h0.03125c0.0076-0.01959-0.0075-0.0429 0-0.0625 4.6647-12.211-5.7348-25.954-18.781-24.812-0.02148 0.00188-0.041-0.00196-0.0625 0z" fill="url(#i)"/>
 <path d="m25.156 5.7812c-0.76346-0.037384-1.5581-0.00768-2.3438 0.0625-0.01047 9.351e-4 -0.02078-9.548e-4 -0.03125 0-13.765 0.21926-22.226 18.174-13.469 28.969 7.8913 11.659 27.77 8.7864 31.844-4.7188 0.0029-0.0095-0.0029-0.02172 0-0.03125 4.2865-11.16-4.4053-23.714-16-24.281z" fill="none" stroke="url(#h)"/>
 <path d="m22.812 8.2188c-11.687 0.20811-19.068 15.847-11.656 25.062a2.8576 2.8576 0 0 1 0.25 0.375c6.8288 9.7692 23.951 7.2105 27.438-4.25a2.8576 2.8576 0 0 1 0.09375 -0.25c3.9044-10.221-4.9436-21.894-15.875-20.938-0.50776 0.044417-0.53282 0.042885-0.0625 0a2.8576 2.8576 0 0 1 -0.1875 0z" fill="url(#l)"/>
 <path d="m22.844 9.5938c-0.0219 0.00176-0.04533 0.029986-0.0625 0.03125-0.01471 0.00108-0.07346-0.00155-0.09375 0-0.02104 6.737e-4 -0.04149-7.88e-4 -0.0625 0-10.35 0.3881-17.019 14.59-10.406 22.812 0.10935 0.13889 0.22144 0.28609 0.3125 0.4375 6.1504 8.7987 21.859 6.4484 25-3.875 0.03634-0.11266 0.07933-0.23455 0.125-0.34375 3.5352-9.2541-4.5624-19.929-14.469-19.062-0.0643 0.00562-0.10672-0.00423-0.15625 0-0.06926 0.00227-0.11822 0.00114-0.1875 0z" fill="url(#j)"/>
 <path d="m24.125 9.5625c-0.30574 0.00493-0.62793 0.00417-0.9375 0.03125-0.0643 0.00562-0.10672-0.00423-0.15625 0-0.06926 0.00227-0.11822 0.00114-0.1875 0-0.0219 0.00176-0.04533 0.029986-0.0625 0.03125-0.01471 0.00108-0.07346-0.00155-0.09375 0-0.02104 6.733e-4 -0.04149-7.88e-4 -0.0625 0-3.3997 0.12748-6.3911 1.7492-8.6562 4.1562l4.4688 4.4375c1.443-1.4128 3.4163-2.2812 5.5938-2.2812 2.1922 0 4.1795 0.88267 5.625 2.3125l4.4688-4.4688c-2.5995-2.6175-6.1324-4.2812-10-4.2188z" fill="#f57900" opacity=".9"/>
 <path d="m13.906 13.844c-4.5841 4.9277-6.109 13.096-1.6875 18.594 0.10935 0.13889 0.22144 0.28609 0.3125 0.4375 0.34188 0.48909 0.72786 0.95427 1.125 1.375l4.6875-4.6875c-1.4299-1.4455-2.3125-3.4326-2.3125-5.625 0-2.1918 0.88316-4.1796 2.3125-5.625l-4.4375-4.4688z" fill="#8bb300" opacity=".9"/>
 <path d="m34.188 13.844-4.4688 4.4688c1.4298 1.4455 2.3125 3.4327 2.3125 5.625 1e-6 2.1847-0.89141 4.1495-2.3125 5.5938l4.625 4.625c1.4399-1.3957 2.5644-3.108 3.1875-5.1562 0.03634-0.11266 0.07933-0.23455 0.125-0.34375 2.0162-5.2777 0.26003-11.015-3.4688-14.812z" fill="#c00" opacity=".9"/>
 <path transform="matrix(.97815 0 0 .99854 .16101 -.0092882)" d="m26.455 23.965a2.0447 2.0029 0 1 1 -4.0893 0 2.0447 2.0029 0 1 1 4.0893 0z" fill="#555753"/>
 <rect transform="matrix(.81586 .57825 -.57825 .81586 0 0)" x="32.14" y="-6.996" width="2.837" height="13.187" rx="1.418" ry="1.449" fill="#555753"/>
 <path d="m24.125 9.5312c-0.3058 0.00499-0.62793 0.03542-0.9375 0.0625-0.0643 0.00562-0.10672-0.00423-0.15625 0-0.06926 0.00227-0.11822 0.00114-0.1875 0-0.0219 0.00176-0.04533 0.029986-0.0625 0.03125-0.01471 0.00108-0.07346-0.00155-0.09375 0-0.02104 6.737e-4 -0.04149-7.88e-4 -0.0625 0-7.6762 0.28784-13.322 8.1838-13.031 15.594 8.8823-2.8814 18.673-5.6073 27.344-7.5625-2.4023-4.7064-7.2588-8.2157-12.812-8.125z" fill="url(#k)" opacity=".6"/>
</svg>
